<svg width="825" height="834" viewBox="0 0 825 834" fill="none" xmlns="http://www.w3.org/2000/svg">
<path fill-rule="evenodd" clip-rule="evenodd" d="M115.184 0.555414C92.2702 1.87341 69.3792 10.8524 48.6842 26.6414C34.1422 37.7354 24.2342 49.5074 16.0642 65.3974C9.65421 77.8634 3.71521 97.0054 1.28322 113.033C-0.344785 123.765 -0.464785 718.54 1.15921 727.393C4.98721 748.261 11.6742 764.268 23.8442 781.694C38.8712 803.212 64.2912 820.959 88.4962 826.832C105.007 830.838 110.094 831.545 128.68 832.414C140.001 832.943 270.662 833.358 429.684 833.371C733.992 833.394 713.785 833.734 734.684 828.24C751 823.951 777.056 809.265 785.184 799.777C794.928 788.402 798.511 783.998 803.394 777.393C806.443 773.268 809.5 768.805 810.186 767.474C811.939 764.079 817.806 747.757 821.538 735.893L824.684 725.893V418.893C824.684 130.558 824.578 111.426 822.941 104.217C819.201 87.7544 815.589 76.1164 811.998 68.9644C803.598 52.2354 790.506 35.7434 778.184 26.3684C775.709 24.4854 773.459 22.6864 773.184 22.3714C772.363 21.4284 764.218 16.8784 755.684 12.5954C744.303 6.88342 729.879 2.21741 719.232 0.805414C712.483 -0.0895855 130.586 -0.330585 115.184 0.555414ZM355.798 58.6434C351.9 62.3904 351.293 63.5714 350.669 68.6124C349.504 78.0254 350.523 238.132 351.755 239.364C352.506 240.115 355.658 239.101 362.485 235.91C367.801 233.426 372.803 231.393 373.6 231.393C374.397 231.393 375.307 230.581 375.622 229.589C376.544 226.684 375.306 72.3214 374.322 67.5754C373.376 63.0084 369.556 58.1924 364.984 55.8044C361.133 53.7924 360.708 53.9234 355.798 58.6434ZM454.822 58.3734L450.504 62.3534L449.952 99.6234C449.649 120.121 449.69 157.543 450.042 182.781L450.684 228.67L458.184 232.529C466.535 236.826 473.157 237.757 473.218 234.643C473.576 216.497 472.95 72.3534 472.497 68.4574C471.953 63.7794 471.263 62.4204 467.551 58.7074C465.178 56.3344 462.315 54.3934 461.188 54.3934C460.061 54.3934 457.196 56.1844 454.822 58.3734ZM305.084 58.5684C302.664 60.3144 300.121 62.4514 299.432 63.3184C298.482 64.5134 298.241 71.7244 298.432 93.2114L298.684 121.53L221.184 121.001L143.684 120.473L142.117 114.683C141.255 111.498 139.808 107.482 138.901 105.758C136.611 101.406 129.484 95.3664 122.532 91.8864C117.319 89.2774 115.652 88.9554 107.184 88.9264C98.3602 88.8954 97.2372 89.1264 91.4042 92.1724C79.9532 98.1524 74.0182 105.643 71.2652 117.586C69.2172 126.474 70.4722 138.409 74.1952 145.439C78.2072 153.018 86.8302 160.227 96.3382 163.953C103.647 166.818 107.344 166.978 115.03 164.765C126.046 161.593 132.905 156.993 139.198 148.557L141.687 145.222L169.227 146.321C184.375 146.926 219.343 147.421 246.934 147.422C274.526 147.423 297.682 147.647 298.392 147.919C299.414 148.31 299.625 154.196 299.402 176.114C299.247 191.349 298.73 204.057 298.253 204.354C297.775 204.65 283.727 204.611 267.034 204.267C250.342 203.922 205.363 203.585 167.082 203.517L97.4802 203.393L94.1062 205.667C92.2502 206.917 89.0082 210.18 86.9002 212.917C83.4452 217.404 83.1092 218.362 83.4822 222.665C83.7092 225.29 84.1772 227.72 84.5232 228.065C87.3562 230.899 96.5012 231.2 182.184 231.28C230.309 231.325 276.285 231.369 284.353 231.378L299.023 231.393L299.353 254.859C299.791 285.898 299.302 285.353 313.606 270.75L324.242 259.893L323.744 255.393C323.471 252.918 322.949 209.493 322.585 158.893C322.021 80.3834 321.707 66.5264 320.447 64.3934C318.957 61.8714 311.6 55.3934 310.226 55.3934C309.818 55.3934 307.504 56.8224 305.084 58.5684ZM405.305 59.3924L401.184 63.3914L400.934 120.142C400.797 151.355 400.696 187.546 400.71 200.567C400.741 228.282 400.553 227.724 410.212 228.817C418.699 229.777 422.769 228.809 424.138 225.505C424.936 223.578 425.173 200.576 424.969 144.851C424.652 58.1154 425.106 63.6224 417.81 58.0574C412.951 54.3504 410.196 54.6444 405.305 59.3924ZM506.333 59.7414L502.065 64.0904L501.815 160.864L501.565 257.639L511.422 267.635C516.844 273.133 521.422 277.465 521.596 277.262C524.104 274.342 524.63 270.342 525.001 251.393L525.402 230.893L609.543 230.814C669.742 230.758 697.958 230.364 708.704 229.432C719.891 228.461 725.021 228.407 728.811 229.22C739.154 231.438 745.263 226.66 743.576 217.671C742.719 213.102 735.953 206.147 730.589 204.321C726.051 202.776 732.609 202.843 616.684 203.164C567.184 203.302 526.231 203.409 525.678 203.403C524.299 203.389 524.306 147.412 525.684 147.367C526.234 147.35 547.159 147.363 572.184 147.398C618.996 147.462 670.548 145.95 675.467 144.369C678.115 143.517 678.458 143.8 682.579 150.229C684.96 153.944 688.313 158.165 690.03 159.61C700.001 168 718.662 168.892 734.12 161.717C739.429 159.253 747.096 150.622 750.816 142.921C753.851 136.638 754.184 135.086 754.184 127.209C754.184 115.38 751.708 108.844 744.27 101.04C736.116 92.4844 725.084 87.4264 714.53 87.4044C708.628 87.3914 696.845 91.0744 692.198 94.3834C685.65 99.0464 677.184 112.887 677.184 118.931C677.184 120.198 668.889 120.393 614.934 120.397C580.697 120.399 546.384 120.689 538.684 121.042L524.684 121.683L525.01 96.6764C525.212 81.1224 524.934 70.1784 524.274 67.7274C523.69 65.5604 521.596 61.8984 519.621 59.5904C514.794 53.9514 511.984 53.9834 506.333 59.7414ZM98.5692 113.634C88.6592 121.334 87.9462 130.935 96.6112 139.978C101.356 144.93 104.873 146.102 110.197 144.507C115.197 143.009 122.864 134.617 123.802 129.615C124.831 124.129 120.494 116.402 114.784 113.55C108.99 110.657 102.357 110.691 98.5692 113.634ZM707.531 113.711C703.954 115.493 700.178 122.287 700.232 126.843C700.331 135.162 705.565 141.231 713.404 142.114C721.915 143.074 728.878 136.757 729.867 127.18C730.359 122.411 730.128 121.48 727.755 118.659C726.289 116.918 723.692 114.795 721.983 113.943C718.499 112.205 710.803 112.081 707.531 113.711ZM401.184 257.986C390.799 259.154 382.739 260.737 378 262.539C375.076 263.652 371.784 264.825 370.684 265.147C367.524 266.073 354.22 273.341 348.184 277.439C341.765 281.797 333.173 290.402 326.763 298.893C318.122 310.338 307.828 325.926 304.577 332.488C302.78 336.115 299.349 341.965 296.952 345.488C294.555 349.011 288.707 358.455 283.958 366.475C279.209 374.496 273.791 383.065 271.918 385.518C270.046 387.971 266.776 393.109 264.652 396.936C262.528 400.762 256.928 409.518 252.207 416.393C247.486 423.268 242.756 430.918 241.697 433.393C240.637 435.868 237.8 441.186 235.393 445.211C229.624 454.858 227.828 460.335 228.419 466.482C229.535 478.105 242.643 496.564 253.519 501.83C256.36 503.205 261.384 504.819 264.684 505.415C272.536 506.835 490.055 509.471 511.684 508.409C520.484 507.977 529.934 507.832 532.684 508.087C535.434 508.341 544.081 508.126 551.9 507.608C564.269 506.788 566.802 506.316 571.4 503.974C584.958 497.067 596.211 480.913 596.535 467.893C596.72 460.439 596.039 458.972 581.672 435.893C575.509 425.993 569.722 416.543 568.813 414.893C567.903 413.243 566.723 411.218 566.191 410.393C560.184 401.084 551.967 387.664 546.292 377.893C539.275 365.813 533.41 356.417 518.684 333.673C514.284 326.877 507.084 315.196 502.684 307.714C494.227 293.336 484.19 281.397 474.691 274.418C468.324 269.742 455.646 263.651 449.459 262.297C435.182 259.174 410.348 256.956 401.184 257.986ZM570.184 283.329C564.357 284.505 560.634 287.038 554.314 294.127C550.996 297.848 546.471 302.918 544.259 305.393C538.489 311.849 538.771 313.931 546.905 324.893C555.204 336.077 557.842 338.684 559.772 337.604C560.574 337.155 563.467 333.662 566.202 329.841C574.022 318.914 576.302 316.344 580.554 313.66L584.527 311.151L615.105 311.503C631.924 311.696 662.109 311.467 682.184 310.993C717.166 310.168 718.771 310.21 720.777 312.013C723.802 314.73 724.724 316.933 726.587 325.893C729.937 342.006 730.098 342.393 733.446 342.393C737.655 342.393 743.158 338.699 744.799 334.773C747.603 328.062 745.896 307.46 741.9 299.789C739.419 295.024 729.622 286.588 725.182 285.392C720.336 284.087 720.946 284.099 661.917 284.232C635.095 284.293 606.52 283.914 598.417 283.389C581.845 282.315 575.279 282.301 570.184 283.329ZM96.3952 285.49C82.8862 292.299 72.7632 319.807 79.1552 332.336C81.7482 337.419 87.1362 341.751 93.3702 343.764C99.0742 345.606 101.805 345.815 102.635 344.472C102.948 343.966 102.01 338.917 100.551 333.252C98.1152 323.795 98.0122 322.623 99.2912 318.933C101.725 311.909 98.7002 312.184 172.382 312.29C223.098 312.363 238.997 312.675 240.994 313.639C244.41 315.287 247.67 319.793 260.612 340.758L262.381 343.624L267.363 338.758C272.918 333.335 282.679 320.756 285.564 315.306L287.445 311.753L281.691 306.323C278.527 303.337 273.367 298.359 270.224 295.262C267.082 292.165 262.3 288.581 259.598 287.298L254.684 284.965L196.684 284.929C164.784 284.909 130.134 284.541 119.684 284.111C101.383 283.357 100.526 283.408 96.3952 285.49ZM401.684 294.988C388.811 296.87 377.729 302.081 368.763 310.468C360.226 318.454 355.342 325.693 320.917 381.393C294.882 423.518 291.606 428.725 280.656 445.393C271.795 458.88 268.184 465.56 268.184 468.465C268.184 469.405 273.214 471.026 278.815 471.891C283.358 472.592 450.865 474.745 504.184 474.787C538.193 474.814 552.648 473.721 556.613 470.821C558.324 469.57 558.322 469.32 556.579 464.705C554.032 457.961 553.433 456.917 546.684 447.451C537.945 435.193 518.927 405.371 497.543 370.393C461.461 311.371 455.923 304.721 437.247 297.984C431.064 295.753 427.757 295.248 417.261 294.931C410.344 294.721 403.334 294.747 401.684 294.988ZM402.684 319.262C397.062 320.071 392.612 322.157 389.742 325.329C387.819 327.454 387.825 327.511 390.561 333.089C396.477 345.152 418.488 378.028 430.266 392.393C434.888 398.032 442.565 410.358 448.401 421.513C453.723 431.687 465.049 449.077 468.187 451.893C470.272 453.764 471.677 453.881 489.941 453.702C500.831 453.596 509.891 453.086 510.428 452.549C511.468 451.509 508.624 447.024 494.157 426.893C489.414 420.293 483.993 412.305 482.109 409.142C480.225 405.978 473.669 395.403 467.539 385.642C457.416 369.519 446.184 350.642 446.184 349.751C446.184 348.683 431.665 326.308 428.884 323.091C425.598 319.29 425.596 319.29 416.641 318.916C411.715 318.711 405.434 318.867 402.684 319.262ZM375.617 356.643C375.23 357.881 371.797 363.05 367.988 368.131C364.178 373.213 359.116 381.182 356.738 385.841C354.361 390.5 351.072 396.018 349.429 398.103C347.786 400.187 345.082 404.593 343.421 407.893C341.759 411.193 336.453 419.743 331.629 426.893C319.87 444.324 314.94 452.483 315.706 453.248C316.679 454.221 345.344 454.707 353.989 453.897C360.906 453.248 361.943 452.864 364.667 449.937C366.326 448.154 369.259 443.59 371.184 439.794C375.355 431.569 381.313 421.731 393.407 403.096C401.542 390.561 403.253 386.393 400.263 386.393C399.723 386.393 397.797 384.256 395.985 381.643C392.796 377.046 384.184 362.46 384.184 361.656C384.184 361.438 383.006 359.715 381.565 357.826C378.53 353.846 376.609 353.464 375.617 356.643ZM97.9472 368.385C84.0312 373.68 76.1732 382.554 71.2142 398.574C69.5312 404.012 69.4802 415.253 71.1162 420.393C74.2012 430.086 85.3762 441.813 94.9822 445.436C102.188 448.154 114.254 447.831 121.184 444.735C131.674 440.049 142.529 428.202 143.863 419.985C144.181 418.027 145.13 415.855 145.974 415.159C147.164 414.177 155.639 413.96 183.804 414.19C225.148 414.528 224.837 414.578 227.417 407.186C228.242 404.825 230.182 399.411 231.73 395.156C233.278 390.901 234.266 387.142 233.927 386.803C233.588 386.464 213.145 386.581 188.497 387.063C163.85 387.545 143.21 387.802 142.631 387.635C142.052 387.467 140.747 385.882 139.73 384.112C132.637 371.756 123.619 366.327 110.456 366.488C105.6 366.548 100.907 367.26 97.9472 368.385ZM700.86 370.46C694.285 373.128 689.098 377.503 684.156 384.548C681.243 388.702 679.507 390.324 678.343 389.98C677.431 389.71 658.234 388.792 635.684 387.94C613.134 387.089 593.109 386.181 591.184 385.924C584.808 385.072 584.653 386.157 589.68 396.479C596.165 409.793 597.25 411.732 599.008 413.143C600.189 414.091 609.213 414.393 636.31 414.393C655.969 414.393 673.122 414.799 674.427 415.295C676.023 415.902 677.248 417.619 678.171 420.545C681.538 431.219 688.532 439.816 696.929 443.605C703.854 446.73 721.264 446.703 729.289 443.556C740.768 439.054 749.138 431.132 752.807 421.297C755.272 414.688 755.045 404.114 752.288 397.104C746.977 383.601 737.351 373.387 726.802 370.062C719.444 367.742 707.089 367.932 700.86 370.46ZM99.1832 394.643C95.4122 397.217 92.1842 402.66 92.1842 406.446C92.1842 416.177 98.9112 425.413 105.969 425.371C125.07 425.258 130.867 399.237 112.975 393.924C105.971 391.844 103.062 391.995 99.1832 394.643ZM705.181 399.209C700.286 403.927 700.184 404.147 700.188 409.959C700.193 417.767 702.489 421.58 708.591 423.911C720.012 428.272 731.232 420.853 731.148 408.995C731.121 405.228 730.533 403.201 728.898 401.249C725.246 396.888 720.176 394.401 714.931 394.397C710.607 394.393 709.726 394.828 705.181 399.209ZM406.936 429.643C403.812 432.971 397.184 445.93 397.184 448.71C397.184 450.912 398.761 451.169 416.934 451.936C429.206 452.453 433.184 452.33 433.184 451.432C433.184 449.452 424.438 436.578 419.523 431.324C413.947 425.363 411.287 425.007 406.936 429.643ZM95.1842 472.337C79.5072 480.453 72.2172 492.567 72.1952 510.54C72.1862 517.877 72.7112 520.678 75.6662 529.04C78.8602 538.076 79.0692 539.349 78.1872 544.393C73.3362 572.147 74.5152 590.238 82.1952 605.861C88.5152 618.72 97.4082 625.535 112.184 628.843C113.559 629.151 155.547 628.886 205.49 628.254C258.863 627.578 296.652 627.473 297.161 627.999C297.638 628.491 298.175 640.243 298.356 654.115L298.684 679.336L278.684 678.765C259.7 678.223 176.539 679.856 152.409 681.244L141.134 681.893L135.99 675.332C133.162 671.724 129.221 667.603 127.233 666.174C115.551 657.776 95.7502 658.63 84.1782 668.029C73.6732 676.562 69.7232 685.527 69.6992 700.893C69.6852 710.274 69.8932 711.31 73.0642 717.627C80.9122 733.266 95.7532 740.881 113.365 738.306C119.152 737.46 122.677 736.266 126.934 733.711C135.49 728.574 138.726 724.208 142.732 712.393L144.936 705.893L180.31 705.759C199.766 705.686 234.291 705.346 257.032 705.004L298.38 704.383L298.032 737.499L297.684 770.614L302.531 775.004C305.787 777.953 308.281 779.393 310.131 779.393C313.197 779.393 320.486 774.566 322.168 771.422C323.343 769.227 323.7 549.44 322.543 540.994C321.699 534.836 319.183 533.875 306.38 534.824C301.047 535.219 296.009 535.582 295.184 535.631C292.729 535.776 221.64 532.345 209.237 531.483L197.79 530.687L192.237 524.716C189.183 521.431 185.799 516.977 184.717 514.818C181.493 508.387 175.279 499.514 173.229 498.417C169.949 496.662 158.144 497.228 153.434 499.366C151.096 500.427 149.184 501.767 149.184 502.344C149.184 505.207 147.108 502.58 143.304 494.903C138.295 484.793 130.361 475.806 123.137 472.059C118.697 469.755 116.824 469.4 109.342 469.441C101.834 469.483 99.9532 469.867 95.1842 472.337ZM700.947 470.907C693.09 473.792 683.348 482.31 679.585 489.583C677.785 493.061 672.184 511.615 672.184 514.097C672.184 518.749 692.277 543.036 697.91 545.193C699.436 545.777 704.509 547.298 709.184 548.574L717.684 550.893L720.684 556.893C723.461 562.447 723.68 563.673 723.633 573.393C723.557 589.026 720.58 596.008 712.516 599.465C708.31 601.268 704.134 601.348 617.401 601.291L526.684 601.232L526.981 582.062C527.144 571.519 527.455 562.365 527.671 561.719C527.963 560.844 541.932 560.461 582.374 560.219C635.371 559.901 636.796 559.841 641.302 557.758C647.418 554.929 654.75 546.021 660.704 534.182C665.287 525.071 672.607 524.876 672.184 517.265C671.625 507.21 681.358 493.52 672.184 492C668.325 491.36 646.085 502.86 644.748 503.369C641.947 504.433 637.849 509.551 631.784 519.558C628.928 524.269 625.861 527.976 623.826 529.176C619.062 531.988 609.396 533.39 594.602 533.416C587.497 533.428 569.759 534.075 555.184 534.853C540.609 535.631 523.487 536.006 517.135 535.687C509.161 535.287 504.904 535.472 503.385 536.286L501.184 537.463V653.524C501.184 781.927 500.694 772.463 507.591 777.189C513.266 781.077 519.538 779.469 523.98 772.986C526.138 769.837 526.184 769.105 526.184 738.19V706.61L544.434 705.944C554.472 705.577 588.109 705.641 619.184 706.085L675.684 706.893L676.799 711.41C681.112 728.88 696.218 740.445 714.612 740.36C730.964 740.285 744.05 731.587 751.876 715.591C754.242 710.755 754.61 708.801 754.564 701.338C754.519 693.87 754.1 691.817 751.5 686.291C744.061 670.482 730.469 661.393 714.269 661.393C710.175 661.393 705.219 661.934 703.255 662.596C697.896 664.4 686.626 672.033 683.221 676.164L680.216 679.81L642.95 679.352C595.459 678.767 537.086 679.018 530.934 679.833L526.184 680.462V661.578C526.184 651.192 526.476 639.236 526.834 635.009L527.483 627.323L618.221 628.019C717.87 628.784 714.254 628.965 723.76 622.749C738.919 612.836 746.148 597.998 746.205 576.685C746.235 565.195 748.848 540.64 750.652 534.893C752.808 528.025 753.673 512.254 752.296 504.934C750.113 493.335 737.825 477.71 726.717 472.409C721.28 469.814 719.302 469.403 712.541 469.463C708.22 469.502 703.002 470.152 700.947 470.907ZM102.047 494.648C90.5332 501.756 89.3062 512.448 98.9042 522.046C101.81 524.952 102.911 525.393 107.267 525.393C110.026 525.393 113.593 524.715 115.195 523.887C119.672 521.572 123.447 514.313 123.541 507.839C123.611 503.007 123.263 502.069 120.245 498.956C117.313 495.931 110.014 492.383 106.756 492.398C106.166 492.401 104.047 493.413 102.047 494.648ZM707.369 494.384C701.6 495.746 696.184 502.353 696.184 508.028C696.184 512.192 700.093 519.367 703.487 521.431C707.657 523.967 713.47 524.784 717.613 523.416C724.902 521.011 730.74 510.564 728.21 504.456C726.336 499.931 719.761 494.393 716.263 494.393C714.659 494.393 712.748 494.215 712.016 493.997C711.283 493.78 709.192 493.954 707.369 494.384ZM144.904 523.205C142.275 527.539 138 533.221 135.404 535.832C128.651 542.623 123.921 544.769 103.558 550.282C100.087 551.222 99.3342 551.894 98.8082 554.521C97.0232 563.449 99.1962 584.511 102.595 591.213C105.765 597.466 107.906 599.212 113.76 600.322C116.819 600.903 150.128 600.885 201.684 600.275C276.963 599.386 289.232 599.482 295.684 601.01C297.636 601.473 297.684 600.976 297.684 580.189V558.893L287.684 559.393C282.184 559.668 257.209 559.882 232.184 559.868C179.535 559.84 180.144 559.926 171.423 551.251C166.612 546.465 165.219 544.078 155.283 523.598C154.403 521.785 152.784 519.183 151.684 517.814L149.684 515.325L144.904 523.205ZM355.422 536.144C352.998 537.35 351.867 538.81 351.019 541.83C350.194 544.765 349.878 577.04 349.879 658.052L349.881 770.211L352.283 773.148C353.603 774.764 356.357 777.298 358.402 778.781C361.953 781.355 362.256 781.407 365.119 779.927C366.768 779.074 369.933 776.649 372.151 774.539L376.184 770.703V660.184C376.184 590.805 375.812 547.661 375.185 544.279C373.853 537.103 370.662 534.38 363.684 534.462C360.934 534.494 357.216 535.251 355.422 536.144ZM406.852 535.117C404.749 535.432 403.59 536.489 402.352 539.217C400.826 542.58 400.684 552.567 400.684 656.47V770.047L403.486 773.721C405.027 775.742 407.662 778.106 409.342 778.975C412.229 780.468 412.649 780.424 417.009 778.18C419.616 776.838 422.454 774.382 423.535 772.532C425.385 769.365 425.45 765.596 425.565 656.076C425.663 563.332 425.441 542.318 424.34 539.708C422.365 535.029 416.94 533.605 406.852 535.117ZM455.784 535.871C453.639 536.635 451.537 537.821 451.114 538.507C449.374 541.321 449.076 562.87 449.373 664.393L449.684 770.893L452.018 774.166C453.302 775.966 456.038 778.298 458.097 779.349L461.842 781.259L466.978 778.326C469.803 776.713 472.585 774.512 473.161 773.436C473.878 772.096 474.126 734.692 473.946 654.847L473.684 538.216L471.323 536.305C468.49 534.01 461.548 533.816 455.784 535.871ZM98.2922 687.955C96.3762 689.568 94.6212 692.502 93.5612 695.867C91.3752 702.802 92.8192 708.695 97.9662 713.842C101.134 717.009 102.085 717.393 106.774 717.393C111.322 717.393 112.449 716.974 115.139 714.284C121.207 708.216 122.742 700.368 119.215 693.454C115.167 685.52 104.514 682.72 98.2922 687.955ZM705.906 688.528C701.862 691.545 700.184 695.527 700.188 702.093C700.194 712.408 705.352 717.805 715.258 717.861C721.582 717.896 724.829 715.864 727.909 709.942C731.679 702.692 728.592 691.239 721.978 687.94C717.452 685.682 709.323 685.98 705.906 688.528Z"/>
</svg>
